<?xml version="1.0" encoding="UTF-8" standalone="no"?>
<!-- Created with Inkscape (http://www.inkscape.org/) -->

<svg
   xmlns:dc="http://purl.org/dc/elements/1.1/"
   xmlns:cc="http://creativecommons.org/ns#"
   xmlns:rdf="http://www.w3.org/1999/02/22-rdf-syntax-ns#"
   xmlns:svg="http://www.w3.org/2000/svg"
   xmlns="http://www.w3.org/2000/svg"
   xmlns:xlink="http://www.w3.org/1999/xlink"
   xmlns:sodipodi="http://sodipodi.sourceforge.net/DTD/sodipodi-0.dtd"
   xmlns:inkscape="http://www.inkscape.org/namespaces/inkscape"
   width="1992.7278"
   height="1898.7671"
   id="svg2"
   version="1.1"
   inkscape:version="0.48.1 r9760"
   style="display:inline;enable-background:new"
   sodipodi:docname="Rosa.svg"
   inkscape:export-filename="/home/Maw/Imágenes/Todo Menos Wallpapers/Ilustración/Rosa.png"
   inkscape:export-xdpi="10.62"
   inkscape:export-ydpi="10.62">
  <defs
     id="defs4">
    <linearGradient
       id="linearGradient4214">
      <stop
         style="stop-color:#2b0000;stop-opacity:1"
         offset="0"
         id="stop4216" />
      <stop
         style="stop-color:#b00000;stop-opacity:1;"
         offset="0"
         id="stop4218" />
    </linearGradient>
    <linearGradient
       id="linearGradient4188">
      <stop
         style="stop-color:#b70000;stop-opacity:1;"
         offset="0"
         id="stop4190" />
      <stop
         style="stop-color:#2b0000;stop-opacity:1"
         offset="1"
         id="stop4192" />
    </linearGradient>
    <linearGradient
       inkscape:collect="always"
       id="linearGradient4180">
      <stop
         style="stop-color:#d40000;stop-opacity:1;"
         offset="0"
         id="stop4182" />
      <stop
         style="stop-color:#2b0000;stop-opacity:1"
         offset="1"
         id="stop4184" />
    </linearGradient>
    <linearGradient
       id="linearGradient4174">
      <stop
         style="stop-color:#d40000;stop-opacity:1"
         offset="0"
         id="stop4176" />
      <stop
         style="stop-color:#730000;stop-opacity:1;"
         offset="1"
         id="stop4178" />
    </linearGradient>
    <linearGradient
       id="linearGradient4152">
      <stop
         id="stop4154"
         offset="0"
         style="stop-color:#7f0000;stop-opacity:1;" />
      <stop
         id="stop4156"
         offset="1"
         style="stop-color:#ff0000;stop-opacity:1" />
    </linearGradient>
    <linearGradient
       id="linearGradient4094"
       inkscape:collect="always">
      <stop
         id="stop4096"
         offset="0"
         style="stop-color:#550000;stop-opacity:1" />
      <stop
         id="stop4098"
         offset="1"
         style="stop-color:#ff0000;stop-opacity:1" />
    </linearGradient>
    <linearGradient
       inkscape:collect="always"
       id="linearGradient4062">
      <stop
         style="stop-color:#550000;stop-opacity:1"
         offset="0"
         id="stop4064" />
      <stop
         style="stop-color:#d40000;stop-opacity:1"
         offset="1"
         id="stop4066" />
    </linearGradient>
    <linearGradient
       inkscape:collect="always"
       id="linearGradient4054">
      <stop
         style="stop-color:#550000;stop-opacity:1"
         offset="0"
         id="stop4056" />
      <stop
         style="stop-color:#d40000;stop-opacity:1"
         offset="1"
         id="stop4058" />
    </linearGradient>
    <linearGradient
       inkscape:collect="always"
       id="linearGradient4038">
      <stop
         style="stop-color:#22280b;stop-opacity:1"
         offset="0"
         id="stop4040" />
      <stop
         style="stop-color:#88aa00;stop-opacity:1"
         offset="1"
         id="stop4042" />
    </linearGradient>
    <linearGradient
       inkscape:collect="always"
       id="linearGradient4030">
      <stop
         style="stop-color:#22280b;stop-opacity:1"
         offset="0"
         id="stop4032" />
      <stop
         style="stop-color:#88aa00;stop-opacity:1"
         offset="1"
         id="stop4034" />
    </linearGradient>
    <linearGradient
       inkscape:collect="always"
       id="linearGradient4022">
      <stop
         style="stop-color:#22280b;stop-opacity:1"
         offset="0"
         id="stop4024" />
      <stop
         style="stop-color:#89a02c;stop-opacity:1"
         offset="1"
         id="stop4026" />
    </linearGradient>
    <linearGradient
       inkscape:collect="always"
       id="linearGradient4008">
      <stop
         style="stop-color:#88aa00;stop-opacity:1"
         offset="0"
         id="stop4010" />
      <stop
         style="stop-color:#222b00;stop-opacity:1"
         offset="1"
         id="stop4012" />
    </linearGradient>
    <filter
       inkscape:collect="always"
       id="filter3186"
       color-interpolation-filters="sRGB">
      <feBlend
         inkscape:collect="always"
         mode="multiply"
         in2="BackgroundImage"
         id="feBlend3188" />
    </filter>
    <filter
       id="filter3958"
       inkscape:label="Noisy blur"
       inkscape:menu="Blurs"
       inkscape:menu-tooltip="Small-scale roughening and blurring to edges and content"
       x="-0.25"
       width="1.5"
       y="-0.25"
       height="1.5"
       color-interpolation-filters="sRGB">
      <feGaussianBlur
         id="feGaussianBlur3960"
         stdDeviation="5"
         result="result1" />
      <feTurbulence
         id="feTurbulence3962"
         numOctaves="1"
         seed="0"
         type="fractalNoise"
         baseFrequency="0.1"
         result="result2" />
      <feDisplacementMap
         id="feDisplacementMap3964"
         in2="result2"
         scale="5"
         yChannelSelector="G"
         xChannelSelector="R"
         result="result3"
         in="result1" />
      <feComposite
         id="feComposite3966"
         in2="result3"
         operator="atop" />
    </filter>
    <filter
       id="filter3990"
       inkscape:label="Noisy blur"
       inkscape:menu="Blurs"
       inkscape:menu-tooltip="Small-scale roughening and blurring to edges and content"
       height="1.5"
       y="-0.25"
       width="1.5"
       x="-0.25"
       color-interpolation-filters="sRGB">
      <feTurbulence
         id="feTurbulence3992"
         baseFrequency="0.05"
         numOctaves="5"
         type="fractalNoise"
         result="result91" />
      <feDisplacementMap
         id="feDisplacementMap3994"
         in2="result91"
         scale="25"
         result="result5"
         xChannelSelector="R"
         in="SourceGraphic"
         yChannelSelector="A" />
      <feComposite
         id="feComposite3996"
         in2="result5"
         in="SourceGraphic"
         operator="atop"
         result="fbSourceGraphic" />
      <feColorMatrix
         result="fbSourceGraphicAlpha"
         in="fbSourceGraphic"
         values="0 0 0 -1 0 0 0 0 -1 0 0 0 0 -1 0 0 0 0 1 0"
         id="feColorMatrix3998" />
      <feGaussianBlur
         id="feGaussianBlur4000"
         stdDeviation="5"
         result="result1"
         in="fbSourceGraphic" />
      <feTurbulence
         id="feTurbulence4002"
         numOctaves="1"
         seed="0"
         type="fractalNoise"
         baseFrequency="0.1"
         result="result2" />
      <feDisplacementMap
         id="feDisplacementMap4004"
         in2="result2"
         scale="5"
         yChannelSelector="G"
         xChannelSelector="R"
         result="result3"
         in="result1" />
      <feComposite
         id="feComposite4006"
         in2="result3"
         operator="atop" />
    </filter>
    <linearGradient
       inkscape:collect="always"
       xlink:href="#linearGradient4008"
       id="linearGradient4014"
       x1="553.94189"
       y1="695.26819"
       x2="518.58655"
       y2="640.21484"
       gradientUnits="userSpaceOnUse"
       gradientTransform="matrix(4.2050128,0,0,4.2050128,-4361.6349,-3396.1471)" />
    <linearGradient
       inkscape:collect="always"
       xlink:href="#linearGradient4022"
       id="linearGradient4028"
       x1="543.84039"
       y1="588.19202"
       x2="582.22614"
       y2="595.76819"
       gradientUnits="userSpaceOnUse"
       gradientTransform="matrix(4.2050128,0,0,4.2050128,-4361.6349,-3396.1471)" />
    <linearGradient
       inkscape:collect="always"
       xlink:href="#linearGradient4030"
       id="linearGradient4036"
       x1="417.57132"
       y1="674.56006"
       x2="431.20837"
       y2="726.58289"
       gradientUnits="userSpaceOnUse"
       gradientTransform="matrix(4.2050128,0,0,4.2050128,-4361.6349,-3396.1471)" />
    <linearGradient
       inkscape:collect="always"
       xlink:href="#linearGradient4038"
       id="linearGradient4044"
       x1="251.9063"
       y1="678.09558"
       x2="229.17786"
       y2="748.30121"
       gradientUnits="userSpaceOnUse"
       gradientTransform="matrix(4.2050128,0,0,4.2050128,-4361.6349,-3396.1471)" />
    <linearGradient
       inkscape:collect="always"
       xlink:href="#linearGradient4038"
       id="linearGradient4052"
       x1="518.08148"
       y1="411.41528"
       x2="573.11993"
       y2="349.2699"
       gradientUnits="userSpaceOnUse"
       gradientTransform="matrix(4.2050128,0,0,4.2050128,-4361.6349,-3396.1471)" />
    <linearGradient
       inkscape:collect="always"
       xlink:href="#linearGradient4054"
       id="linearGradient4060"
       x1="476.3392"
       y1="589.62646"
       x2="516.69635"
       y2="625.69781"
       gradientUnits="userSpaceOnUse"
       gradientTransform="matrix(4.2050128,0,0,4.2050128,-4361.6349,-3396.1471)" />
    <linearGradient
       inkscape:collect="always"
       xlink:href="#linearGradient4062"
       id="linearGradient4068"
       x1="389.19635"
       y1="597.48358"
       x2="416.69635"
       y2="648.19781"
       gradientUnits="userSpaceOnUse"
       gradientTransform="matrix(4.2050128,0,0,4.2050128,-4361.6349,-3396.1471)" />
    <linearGradient
       inkscape:collect="always"
       xlink:href="#linearGradient4062"
       id="linearGradient4070"
       x1="300.39362"
       y1="646.78088"
       x2="284.99622"
       y2="672.82068"
       gradientUnits="userSpaceOnUse"
       gradientTransform="matrix(4.2050128,0,0,4.2050128,-4361.6349,-3396.1471)" />
    <linearGradient
       inkscape:collect="always"
       xlink:href="#linearGradient4062"
       id="linearGradient4084"
       x1="240.28954"
       y1="636.93182"
       x2="210.41824"
       y2="662.25751"
       gradientUnits="userSpaceOnUse"
       gradientTransform="matrix(4.2050128,0,0,4.2050128,-4361.6349,-3396.1471)" />
    <linearGradient
       inkscape:collect="always"
       xlink:href="#linearGradient4094"
       id="linearGradient4092"
       x1="312.76776"
       y1="532.8407"
       x2="223.48206"
       y2="579.26929"
       gradientUnits="userSpaceOnUse"
       gradientTransform="matrix(4.2050128,0,0,4.2050128,-4361.6349,-3396.1471)" />
    <linearGradient
       inkscape:collect="always"
       xlink:href="#linearGradient4094"
       id="linearGradient4106"
       x1="455.62491"
       y1="457.8407"
       x2="545.62488"
       y2="411.41214"
       gradientUnits="userSpaceOnUse"
       gradientTransform="matrix(4.2050128,0,0,4.2050128,-4361.6349,-3396.1471)" />
    <linearGradient
       inkscape:collect="always"
       xlink:href="#linearGradient4094"
       id="linearGradient4120"
       x1="282.05347"
       y1="460.69785"
       x2="228.48207"
       y2="407.12643"
       gradientUnits="userSpaceOnUse"
       gradientTransform="matrix(4.2050128,0,0,4.2050128,-4361.6349,-3396.1471)" />
    <linearGradient
       inkscape:collect="always"
       xlink:href="#linearGradient4062"
       id="linearGradient4142"
       x1="383.48206"
       y1="432.8407"
       x2="386.69635"
       y2="363.91214"
       gradientUnits="userSpaceOnUse"
       gradientTransform="matrix(4.2050128,0,0,4.2050128,-4361.6349,-3396.1471)" />
    <linearGradient
       inkscape:collect="always"
       xlink:href="#linearGradient4152"
       id="linearGradient4150"
       x1="452.84964"
       y1="468.22"
       x2="535.61102"
       y2="428.50424"
       gradientUnits="userSpaceOnUse"
       gradientTransform="matrix(4.2050128,0,0,4.2050128,-4361.6349,-3396.1471)" />
    <linearGradient
       inkscape:collect="always"
       xlink:href="#linearGradient4062"
       id="linearGradient4164"
       x1="312.76773"
       y1="387.1264"
       x2="413.48206"
       y2="584.98352"
       gradientUnits="userSpaceOnUse"
       gradientTransform="matrix(4.2050128,0,0,4.2050128,-4361.6349,-3396.1471)" />
    <linearGradient
       inkscape:collect="always"
       xlink:href="#linearGradient4174"
       id="linearGradient4172"
       x1="300.62491"
       y1="554.98358"
       x2="447.76776"
       y2="419.98358"
       gradientUnits="userSpaceOnUse"
       gradientTransform="matrix(4.2050128,0,0,4.2050128,-4361.6349,-3396.1471)" />
    <linearGradient
       inkscape:collect="always"
       xlink:href="#linearGradient4180"
       id="linearGradient4186"
       x1="357.0535"
       y1="536.41211"
       x2="392.05347"
       y2="485.69785"
       gradientUnits="userSpaceOnUse"
       gradientTransform="matrix(4.2050128,0,0,4.2050128,-4361.6349,-3396.1471)" />
    <linearGradient
       inkscape:collect="always"
       xlink:href="#linearGradient4188"
       id="linearGradient4194"
       x1="378.28549"
       y1="472.91699"
       x2="373.45743"
       y2="689.30707"
       gradientUnits="userSpaceOnUse"
       gradientTransform="matrix(4.2050128,0,0,4.2050128,-4361.6349,-3396.1471)" />
    <linearGradient
       inkscape:collect="always"
       xlink:href="#linearGradient4214"
       id="linearGradient4212"
       x1="364.91064"
       y1="579.98352"
       x2="406.3392"
       y2="427.8407"
       gradientUnits="userSpaceOnUse"
       gradientTransform="matrix(4.2050128,0,0,4.2050128,-4361.6349,-3396.1471)" />
  </defs>
  <sodipodi:namedview
     id="base"
     pagecolor="#ffffff"
     bordercolor="#666666"
     borderopacity="1.0"
     inkscape:pageopacity="0.0"
     inkscape:pageshadow="2"
     inkscape:zoom="0.43396581"
     inkscape:cx="996.36389"
     inkscape:cy="949.38354"
     inkscape:document-units="px"
     inkscape:current-layer="layer4"
     showgrid="false"
     showguides="false"
     fit-margin-top="0"
     fit-margin-left="0"
     fit-margin-right="0"
     fit-margin-bottom="0"
     inkscape:window-width="1920"
     inkscape:window-height="1022"
     inkscape:window-x="0"
     inkscape:window-y="27"
     inkscape:window-maximized="1" />
  <metadata
     id="metadata7">
    <rdf:RDF>
      <cc:Work
         rdf:about="">
        <dc:format>image/svg+xml</dc:format>
        <dc:type
           rdf:resource="http://purl.org/dc/dcmitype/StillImage" />
        <dc:title />
      </cc:Work>
    </rdf:RDF>
  </metadata>
  <g
     inkscape:groupmode="layer"
     id="layer2"
     inkscape:label="Black Line"
     transform="translate(3657.0703,2044.2077)"
     style="display:inline">
    <path
       style="fill:#000000;stroke:none"
       d="m -3565.1903,-657.28921 c -2.142,-17.69876 -10.0411,-38.7816 -5.8406,-53.09625 12.8152,-43.67158 55.7565,-59.5787 88.6709,-138.05042 -40.4344,-59.71805 -66.7081,-97.1115 -101.1851,-130.5756 -31.2058,-30.28912 -69.2983,-57.83302 -72.9487,-90.43392 -4.1935,-37.4508 12.7699,-21.2049 108.2943,-152.7885 -30.4147,-25.1049 -58.0382,-83.4793 -54.4471,-128.333 7.1463,-89.2588 70.9948,-208.8829 96.1096,-290.1557 17.3249,-56.0645 -5.035,-74.2002 9.31,-131.589 45.6975,1.9972 110.4707,14.7415 159.0554,2.7471 86.845,-21.44 151.6354,-75.7712 174.3894,-83.4535 43.0126,-14.5222 71.6186,-0.2314 104.0688,6.3715 188.9727,-49.7329 244.246,-200.4793 356.8071,-197.5182 86.8379,2.2844 102.6529,135.7875 165.6605,142.2981 78.698,-54.8276 149.452,9.5037 223.0045,31.8578 9.8005,-38.3586 24.5825,-70.9056 67.9632,-70.0872 0,0 45.2998,-51.04 76.4588,-55.2201 11.99,-1.6085 33.9816,12.7431 33.9816,12.7431 0,0 35.5714,-29.8342 57.344,-31.8578 11.1456,-1.0359 27.6101,4.2477 27.6101,4.2477 17.2348,-18.7486 48.0137,-17.1812 76.4587,-19.1146 42.4808,-3.6403 77.1425,-8.3977 99.821,-14.867 -3.1901,23.5372 -10.7391,44.8949 2.1239,76.4587 15.0133,31.4149 13.0484,55.5532 8.4954,78.5825 -1.401,40.383 -1.8672,82.6356 -16.9909,95.5734 6.6681,29.0259 10.4111,58.0519 -19.1146,87.0779 13.02,45.8475 -114.0578,152.0048 -135.9265,155.0412 -14.3078,73.1715 -8.8638,144.1483 2.1238,214.5091 23.3715,74.3335 76.2585,108.4226 63.7156,133.8027 -14.5015,29.3429 -80.6959,62.3164 -121.0596,93.4495 4.996,14.4525 14.9046,21.536 25.4862,27.6101 27.0667,-95.0961 143.5574,-79.2437 176.2797,-67.9633 38.7796,-16.6057 56.522,-2.8243 70.0872,16.9908 54.1189,23.9133 106.5638,41.1301 155.0412,42.477 -36.2511,40.8152 -82.1394,78.1259 -89.2018,129.55502 0.8711,18.59961 -18.2483,53.11259 -44.6009,70.08715 -7.1133,21.21919 -10.1258,44.78173 -36.1055,55.22013 -22.2271,20.3435 -38.5565,44.61879 -84.9541,48.84862 -14.9929,12.48616 -22.5236,26.21598 -53.0963,36.10551 17.2711,10.36846 32.8025,23.17248 36.1055,53.09629 32.9606,32.60521 37.4873,65.55282 33.9816,91.32564 15.7478,20.53057 23.8958,41.06113 25.4862,61.5917 4.8628,34.32013 7.6504,68.29442 -4.2477,99.82109 17.5607,90.47957 -9.0294,134.68456 -40.3531,178.4036 -10.0167,-11.29205 -16.3168,-23.82306 -42.4771,-29.73395 -38.07,4.49977 -68.8072,-3.83276 -95.5733,-19.11468 -30.4974,0.90208 -78.9849,-4.25562 -104.0688,-22.30046 -60.0119,11.6388 -76.895,-16.53362 -101.9449,-37.16736 -51.5746,-16.43882 -84.343,-50.11679 -101.9449,-97.69721 -20.9825,-16.28288 -31.6217,-32.56578 -44.6009,-48.84866 6.2627,20.45802 16.2511,43.39985 6.3716,53.09635 5.368,24.07033 6.4603,48.1406 -10.6193,72.21093 7.2138,25.34588 15.6173,50.49343 6.3716,78.58257 12.4128,31.31683 3.1347,59.29665 -21.2386,84.9541 1.3717,22.57325 -3.5225,50.36809 -19.1146,87.07804 -39.0466,-51.76424 -114.528,-86.21645 -190.0848,-129.55509 -27.6869,-10.07763 -43.6636,-27.18136 -57.344,-45.66284 -43.2352,-26.54815 -69.016,-52.0344 -62.6537,-79.64447 -25.2096,-17.06024 -35.1369,-81.51598 -12.7431,-101.94491 -24.1654,0.40159 -42.9718,-1.87642 -61.5917,-4.24769 -56.1209,45.05159 -142.8633,72.43427 -259.11,80.70641 -9.8616,0.70176 -15.4816,-6.51153 -21.2385,-12.74314 -9.1573,10.17296 -12.5056,20.87397 -36.1055,29.73394 -13.6039,85.19572 -76.0714,109.06863 -116.8119,112.56417 -42.9396,32.94397 -83.7749,44.84445 -121.0596,21.23853 -8.2932,5.15386 -15.9609,36.92869 -87.0779,25.48622 -25.081,11.41605 -45.9994,30.04731 -91.3256,6.37157 2.8364,-25.20118 12.7417,-47.57484 -4.2477,-80.70638 -23.5232,-99.84404 -7.6958,-99.52342 -2.1239,-125.30728 -21.0582,-30.4494 -25.6657,-61.58427 -12.7431,-93.44952 -3.4347,-43.20981 -1.9726,-84.09998 21.2385,-114.68805 z"
       id="path3051"
       inkscape:connector-curvature="0"
       sodipodi:nodetypes="cscsscsscsscscccscscccccccccscccccccccccccccccccccccccccccccscccccccccc" />
  </g>
  <g
     inkscape:groupmode="layer"
     id="layer3"
     inkscape:label="Sheets"
     transform="translate(3657.0703,2044.2077)"
     style="display:inline">
    <path
       style="fill:url(#linearGradient4052);fill-opacity:1;stroke:none"
       d="m -2303.622,-1864.6992 c 11.9171,-26.7336 15.1884,-59.6428 64.7775,-59.4679 26.5525,-16.3267 55.8799,-60.4022 79.6444,-48.8486 46.6523,20.1078 72.7641,-40.3784 118.9358,-18.0527 21.0728,-32.69 105.9564,-12.2123 148.6696,-33.9816 -1.7149,19.1238 -12.5531,36.7271 1.0619,58.4059 5.5003,39.6183 10.5628,59.6813 1.0619,78.5825 1.4115,31.7135 4.7602,64.5894 -7.4334,88.1399 9.1434,37.3145 4.6315,67.8012 -20.1767,88.1399 -1.0064,61.5143 -73.9041,92.2181 -111.5022,138.0503 19.6872,-44.8642 31.4588,-108.2858 28.672,-226.1902 -136.3778,14.5412 -217.5877,-5.3599 -303.7108,-64.7775 z"
       id="path3054"
       inkscape:connector-curvature="0"
       sodipodi:nodetypes="cccccccccccc" />
    <path
       style="fill:url(#linearGradient4028);fill-opacity:1;stroke:none"
       d="m -2059.379,-1076.75 c 36.8318,-59.4017 88.1867,-86.6454 164.5985,-58.406 35.3616,-11.569 56.5845,1.0999 72.211,23.3624 20.8164,3.3839 95.9619,27.7473 126.3692,31.8578 -40.7855,34.3356 -58.6147,66.0123 -67.9633,103.00682 -7.9119,31.30919 -35.5737,45.17971 -47.7866,73.27291 -21.1893,48.74095 -28.3835,34.09444 -37.1675,48.84862 -16.9846,28.52863 -36.7064,50.99797 -77.5206,56.28207 -23.0084,15.03539 -46.0168,41.2554 -69.0252,32.91973 -4.9556,-17.69877 -15.5749,-36.81347 -31.8578,-57.34401 25.6609,-34.4931 27.547,-86.56041 29.3652,-132.54543 1.8063,-45.68751 3.6412,-85.35751 -0.6932,-100.01641 -2.5906,-8.7613 -31.8715,-17.5516 -60.5297,-21.2385 z"
       id="path3056"
       inkscape:connector-curvature="0"
       sodipodi:nodetypes="ccccssscccssc" />
    <path
       style="fill:url(#linearGradient4014);fill-opacity:1;stroke:none"
       d="m -2040.6179,-809.89277 c 19.8853,23.77835 39.6152,47.55671 45.8046,71.33503 39.0563,14.98797 41.8008,38.04514 45.8046,60.82251 8.059,14.80774 20.2211,12.17705 21.0251,57.81894 33.337,65.91932 24.0572,76.68725 25.5304,101.37085 5.6486,23.43234 14.4194,42.40447 6.758,84.85117 -1.3884,42.8156 6.6121,83.0706 -15.0179,131.40665 -27.25,-6.08844 -58.8181,-1.38165 -78.8439,-25.53044 -22.9235,13.07484 -47.165,6.37665 -72.0859,-10.51254 -31.2874,10.29708 -62.5747,0.0336 -93.862,-11.26342 -46.4617,4.81263 -67.6519,-17.9437 -93.111,-36.04295 -35.106,-22.44325 -77.2057,-22.15721 -97.6164,-92.36014 -37.338,-16.01182 -42.6104,-37.36789 -57.8189,-57.06802 79.4298,-27.35732 164.8801,-114.3847 227.5213,-135.91202 70.6987,6.90274 106.8243,-58.63334 135.912,-138.91562 z"
       id="path3058"
       inkscape:connector-curvature="0"
       sodipodi:nodetypes="ccccccccccccccc" />
    <path
       style="fill:url(#linearGradient4036);fill-opacity:1;stroke:none"
       d="m -2584.266,-580.86972 c 27.0466,17.26735 116.1417,32.42681 153.1826,53.31353 12.2129,18.52209 8.7179,37.04421 7.509,55.56627 -1.9052,22.00193 11.3011,40.22599 -12.0144,67.58052 14.2218,36.54659 10.0634,61.60557 9.0107,88.60562 0.9784,25.78075 -1.5953,51.56151 -16.5196,77.34223 1.7571,22.96611 -2.8261,44.34718 -9.0108,65.32788 -20.8952,-14.90569 -41.9518,-39.37355 -64.4434,-53.36699 -42.4563,-26.41448 -86.1765,-42.45222 -116.5223,-75.78696 -20.2835,-5.71321 -41.758,-5.8686 -56.3172,-38.29565 -19.2253,-8.13453 -38.7199,-13.44131 -54.0644,-62.32429 -17.4366,-25.29274 -31.9555,-52.87798 -21.776,-99.86907 52.285,5.10737 65.6079,1.86572 92.3601,1.50178 44.7377,-13.44052 66.8984,-54.5423 88.6057,-79.59487 z"
       id="path3060"
       inkscape:connector-curvature="0"
       sodipodi:nodetypes="cccccccscccccc" />
    <path
       style="fill:url(#linearGradient4044);fill-opacity:1;stroke:none"
       d="m -3564.1842,-627.42523 c -3.2381,23.68914 -11.9707,41.09874 -2.2527,79.59487 -9.3588,26.3322 -14.6573,61.52675 5.2563,97.6164 -9.7023,25.16133 -6.312,88.71449 5.2562,112.63425 10.5991,32.77365 9.4101,60.83209 0,85.60203 35.4589,14.98203 50.7814,-4.55539 73.5877,-11.26343 45.0683,7.31735 72.7032,-5.70422 93.862,-26.2813 41.8077,25.38316 80.0224,4.0563 117.8905,-21.77596 59.5234,-8.43239 88.0864,-37.91781 97.6164,-80.34579 14.4587,-6.79666 8.7815,-16.11032 8.2598,-24.77956 32.7844,-4.00711 31.8429,-24.87714 42.801,-39.7974 -3.4004,-30.45022 -25.7225,-46.18358 -46.5555,-63.07518 -72.3311,23.02347 -110.1087,28.49161 -158.4388,24.02861 -69.6854,-6.43508 -106.9059,-47.12369 -159.1898,-71.33501 -29.5021,-6.59337 -36.2112,6.51338 -48.8082,-2.2527 -28.2757,-19.67674 -20.0512,-37.05782 -29.2849,-58.56983 z"
       id="path3062"
       inkscape:connector-curvature="0"
       sodipodi:nodetypes="ccccccccccccscsc" />
  </g>
  <g
     inkscape:groupmode="layer"
     id="layer4"
     inkscape:label="Petals"
     transform="translate(3657.0703,2044.2077)"
     style="display:inline">
    <path
       style="fill:url(#linearGradient4084);fill-opacity:1;stroke:none"
       d="m -3471.7408,-829.32123 c 12.5,10.20451 15.6263,18.06558 42.477,31.85782 13.2243,199.16962 183.1988,164.53701 250.6146,263.35766 -37.6335,0.51857 -66.9057,14.97287 -99.0701,24.60648 -98.8117,29.59539 -172.1002,-93.645 -259.11,-78.58254 6.3989,-45.04644 -29.7397,-107.8994 -19.8656,-130.7991 5.2661,-12.21285 24.7947,-22.53822 41.9073,-42.06733 17.4495,-19.91364 32.5362,-49.09834 43.0468,-68.37299 z"
       id="path3065"
       inkscape:connector-curvature="0"
       sodipodi:nodetypes="cccscssc" />
    <path
       style="fill:url(#linearGradient4070);fill-opacity:1;stroke:none"
       d="m -3417.0087,-798.62935 c 2.2563,206.26188 238.7299,148.47594 315.3759,346.91355 91.7898,8.18839 178.4039,-12.89598 237.2829,-60.07156 -124.4559,2.42849 -244.5293,-76.05769 -273.3259,-166.69876 -91.9524,-51.63324 -210.92,-99.68289 -279.3329,-120.14323 z"
       id="path3067"
       inkscape:connector-curvature="0"
       sodipodi:nodetypes="ccccc" />
    <path
       style="fill:url(#linearGradient4068);fill-opacity:1;stroke:none"
       d="m -3126.6148,-671.0942 c 71.9239,175.90867 414.2717,168.89247 479.9906,140.17421 24.9242,-10.89152 62.1535,-85.34487 128.2924,-141.47264 51.5229,-43.72415 124.5378,-87.62734 192.5454,-70.34962 8.7916,2.2336 19.7769,9.20238 27.474,3.68478 8.2519,-5.91538 4.131,-19.78364 6.7108,-29.43303 29.0295,-108.58107 97.2557,-197.78148 62.3144,-304.0118 -125.5753,261.82728 -186.2735,181.85722 -294.1359,180.33583 -20.7397,-0.29268 -45.2684,2.31527 -70.1048,10.81089 -37.5485,12.84396 -67.8461,43.60064 -92.7644,65.21977 -62.7348,54.42875 -99.8193,86.03837 -152.7529,77.30341 -12.2661,-2.02406 -22.8071,-11.77609 -35.8931,-11.90627 -17.1548,-0.17064 -31.1358,14.54715 -45.5848,24.69783 -59.5507,41.83536 -110.691,105.29719 -206.0917,54.94664 z"
       id="path3069"
       inkscape:connector-curvature="0"
       sodipodi:nodetypes="cssssscssssssc" />
    <path
       style="fill:url(#linearGradient4060);fill-opacity:1;stroke:none"
       d="m -2573.3513,-599.94517 c 145.0321,75.97591 174.8296,60.3595 233.3506,13.2099 29.1735,-23.50466 82.0513,-60.79262 122.9479,-85.21082 9.8874,-5.90345 18.3003,-13.2823 27.0568,-15.07706 10.1378,-2.0778 19.7824,-0.3389 28.4071,-1.69085 82.0403,-12.85836 86.601,-95.15259 107.5195,-134.23566 42.1088,-78.67375 45.0087,-236.93274 36.1055,-226.19024 -8.3615,10.0888 -96.7868,-42.8817 -87.078,-50.9725 -29.4291,21.3617 -60.2773,46.2706 -100.883,95.5734 -5.1755,69.19055 -64.7897,177.84199 -78.5825,263.35766 -0.987,6.11923 -9.7396,9.35294 -15.9652,11.2698 -9.4853,2.92046 -20.6431,2.19851 -29.7697,-0.51528 -83.51,-24.83136 -175.276,64.54217 -243.109,130.48165 z"
       id="path3071"
       inkscape:connector-curvature="0"
       sodipodi:nodetypes="cssssssccsasc" />
    <path
       style="fill:url(#linearGradient4092);fill-opacity:1;stroke:none"
       d="m -2890.8672,-756.04833 c -66.806,-25.68369 -133.6737,-48.3972 -206.0137,-93.44952 -56.759,-140.99016 -198.7902,-183.10525 -264.4195,-216.63285 -48.9096,-24.9861 61.3818,-93.8424 113.626,-144.422 -60.418,-62.9716 -97.0426,-140.5437 -33.9816,-279.2866 -93.6815,-6.9909 -164.0448,133.2347 -239.0305,256.9273 -31.2437,51.5381 -66.8002,96.6957 -99.5807,132.7377 -7.0544,7.7563 -16.5036,12.9844 -21.3818,21.3004 -4.2859,7.3065 2.2786,17.69 9.8287,28.4822 20.9911,30.0045 71.5289,71.20212 122.511,133.26011 20.5166,24.97388 30.5406,62.46731 59.869,85.68651 39.3792,31.1766 89.863,40.8773 141.9717,59.17397 41.3216,14.50904 93.132,36.07589 142.6042,58.74373 37.5617,17.21055 69.9576,47.1854 103.0271,50.92857 60.2837,6.82364 114.0542,-62.22558 170.9701,-93.44952 z"
       id="path3073"
       inkscape:connector-curvature="0"
       sodipodi:nodetypes="ccsccsssssssssc" />
    <path
       style="fill:url(#linearGradient4120);fill-opacity:1;stroke:none"
       d="m -3546.0756,-1239.2247 c 81.6962,-95.4357 144.2982,-248.1541 253.8003,-260.1719 0.9713,-81.8157 -2.7057,-75.3155 -4.2477,-109.3784 47.4327,5.6636 94.8654,-7.0795 142.2981,-38.2293 -24.3957,-70.8312 20.3799,-133.9768 71.1491,-196.4564 -125.0288,-17.3587 -240.372,161.6806 -403.532,83.8922 47.2319,179.6878 -175.7982,358.5451 -59.4678,520.3438 z"
       id="path3075"
       inkscape:connector-curvature="0"
       sodipodi:nodetypes="ccccccc" />
    <path
       style="fill:url(#linearGradient4142);fill-opacity:1;stroke:none"
       d="m -3147.4374,-1656.9025 c -9.5672,-173.4474 137.1934,-177.8188 256.7516,-250.3159 15.5671,-9.4395 139.7757,-123.3948 199.0417,-116.1209 38.3628,4.7083 60.6884,54.4833 82.6003,81.407 64.4633,79.2079 250.9418,151.5768 272.5732,242.2287 -47.8403,-6.9286 -151.1767,-101.4368 -166.6987,-96.1145 -25.0354,8.5844 -43.6265,10.1387 -89.3566,41.2993 -47.4291,-78.787 -102.4139,-42.3493 -157.6879,-1.5019 -45.2426,-14.9068 -94.1832,-41.5241 -116.3888,16.5197 -110.7254,-99.3943 -192.8575,13.278 -280.8348,82.5985 z"
       id="path3077"
       inkscape:connector-curvature="0"
       sodipodi:nodetypes="cssscscccc" />
    <path
       style="fill:url(#linearGradient4106);fill-opacity:1;stroke:none"
       d="m -2211.0712,-1014.8871 c 26.5222,-35.1499 56.5323,-67.129 89.9848,-95.9787 37.733,-32.5411 122.8996,-68.4886 126.2731,-85.738 5.3492,-27.3522 -40.1776,-78.3018 -49.5726,-119.5915 -15.9613,-70.1471 -28.8191,-147.2074 -5.3674,-218.9444 32.5579,-99.5922 39.0581,-177.4184 33.9149,-251.6677 -190.5617,61.4007 -402.1098,-176.1546 -507.9695,-99.3758 124.718,80.3638 204.5232,151.7149 194.0953,193.9886 39.3054,9.1753 94.4875,20.4291 137.2517,28.0016 59.9644,10.6181 102.6949,20.1541 106.0383,60.604 1.8164,21.9748 0.8929,44.6949 -4.7178,66.7797 -11.8976,46.8304 -27.7749,84.2382 -35.4509,128.5008 -8.0005,46.1336 -12.8108,74.9891 8.7333,118.1478 5.2786,10.5745 21.1525,29.9151 20.923,43.9978 -0.7686,47.1592 -77.5123,112.0287 -127.6522,165.197 12.246,23.9614 12.1697,44.8423 13.516,66.0788 z"
       id="path3079"
       inkscape:connector-curvature="0"
       sodipodi:nodetypes="csssscccsssssscc" />
    <path
       style="fill:url(#linearGradient4150);fill-opacity:1;stroke:none"
       d="m -2582.9086,-1738.33 c 18.0931,-18.7338 47.0452,-38.5287 82.8302,-37.1674 14.8021,0.563 33.2274,19.7002 47.8264,29.0816 39.7081,25.5166 81.7443,49.6749 141.5522,69.6757 93.4615,31.2555 192.6916,27.7919 204.596,74.3366 18.6674,72.9868 -25.7822,141.145 -35.4456,199.9399 -11.7484,71.4804 17.811,127.6559 19.5167,168.5485 2.0195,48.4139 -62.0761,91.0381 -105.3238,135.5397 -51.2503,65.9875 -76.9474,177.36003 -153.7862,197.90514 -31.2094,8.34476 -65.3886,-1.39993 -97.712,-1.72893 -42.0606,-0.42809 -82.8326,0.43241 -118.9209,5.97662 52.0011,-43.48591 133.5779,-76.21704 211.757,-110.18373 17.8627,-7.7608 38.2778,-11.3505 52.6626,-23.6189 16.2018,-13.8181 21.7064,-34.5654 28.426,-51.9608 39.9949,-103.5369 -10.1086,-206.9666 29.5353,-306.2954 6.7803,-16.9884 18.1418,-31.8645 21.6832,-52.7093 3.2118,-18.9046 -1.5068,-39.0572 -25.2118,-49.1167 -29.1204,-12.3576 -71.9062,-3.6898 -102.6771,-12.4687 -37.4709,-10.6905 -57.8222,-25.5574 -79.1867,-36.1118 -5.2057,-21.8665 26.488,-113.5203 12.7431,-125.3072 -39.8659,-34.1869 -88.0011,-48.2605 -134.8646,-74.3349 z"
       id="path3081"
       inkscape:connector-curvature="0"
       sodipodi:nodetypes="csssssscsscssssssscsc" />
    <path
       style="fill:url(#linearGradient4164);fill-opacity:1;stroke:none"
       d="m -2461.8701,-1528.4994 c -14.1658,54.9592 -14.3985,135.4624 -21.0251,204.2434 8.6934,34.2752 69.4365,89.3559 9.2611,166.903 -7.9756,10.278 -25.4388,29.5136 -38.9638,40.0864 -64.916,50.7468 -138.6001,111.5744 -223.5146,180.51184 -16.5869,13.466 -46.1648,27.24143 -62.4356,41.31162 -81.322,0.31246 -148.1143,-116.88686 -314.326,-104.35062 -12.4673,-75.66194 -37.2339,-139.05484 -119.4144,-195.30824 -18.5821,10.2573 -175.7112,101.9235 -90.8317,134.7058 75.6784,29.5226 181.2544,78.29162 235.0035,188.17911 7.0385,20.47659 159.1402,124.0196 283.9126,115.18552 36.4803,-2.58288 67.8775,-36.74659 96.0404,-58.11747 17.7664,-13.48163 42.9688,-33.86841 54.8929,-45.71094 75.3596,-74.84342 118.8955,-91.23161 182.3899,-120.98774 148.6462,-44.30808 164.0309,-110.82628 171.2041,-178.71308 0.7149,-74.8638 -14.0431,-97.4438 4.0781,-197.771 5.1395,-28.4547 30.5474,-62.0852 24.456,-107.0924 -2.986,-22.0623 -42.1705,-14.856 -67.5417,-18.3074 -38.1001,-5.1829 -81.252,-10.6703 -123.1857,-44.7678 z"
       id="path3083"
       inkscape:connector-curvature="0"
       sodipodi:nodetypes="ccssscccccsssccsssc" />
    <path
       style="fill:url(#linearGradient4172);fill-opacity:1;stroke:none"
       d="m -2499.4148,-1324.256 -22.5269,15.0179 c 39.8405,139.1615 -190.6608,226.0024 -316.7738,257.3838 -31.5963,7.8623 -65.5975,10.2528 -76.6953,11.4367 -26.4723,-43.5657 -69.9878,-84.6879 -115.4293,-105.5789 -33.8526,-15.5632 -82.155,-6.6707 -87.3124,-23.575 -53.313,-174.7443 -22.1167,-268.4104 51.0609,-318.3796 -3.2102,-76.0011 -3.6878,-111.2183 27.9812,-123.8859 90.0148,-53.4892 128.3273,-85.622 164.2479,-120.9059 -62.7222,-37.7089 -84.8425,-54.0284 -152.591,-2.71 -97.579,73.5123 -174.0953,145.3493 -254.3941,139.3729 6.8787,39.6676 10.2395,69.6889 13.3339,105.0186 -75.867,127.9069 -9.874,254.1557 40.7305,280.9415 91.3926,53.9655 120.0003,129.3868 129.9049,201.2399 116.7314,-29.1471 227.7343,97.91072 286.091,100.61999 17.8512,0.13541 88.8302,-52.0096 144.7051,-97.57439 56.151,-45.7899 109.1194,-85.0827 146.2679,-118.3772 22.6554,-20.1997 32.9309,-41.5898 49.9334,-60.3779 14.3651,-15.8734 21.6975,-60.0259 -28.5339,-139.6665 z"
       id="path3085"
       inkscape:connector-curvature="0"
       sodipodi:nodetypes="ccscsscccccccccscsc" />
    <path
       style="fill:url(#linearGradient4186);fill-opacity:1;stroke:none"
       d="m -3067.1469,-1478.6891 c -23.5053,18.0516 -49.7941,50.5669 -60.4585,96.6518 -19.5312,84.4025 16.0223,203.5351 29.6557,204.674 103.6649,24.7057 145.37,73.2506 189.0297,116.0112 206.9352,-2.8309 424.0626,-158.5809 378.0458,-245.8359 -33.6163,24.3501 -67.4618,48.4136 -95.5734,79.6445 -66.5698,-47.1682 -176.8959,99.6665 -243.1811,107.2545 -159.7741,-48.1932 -162.3955,-172.2533 -243.181,-258.579 23.3986,-26.8509 39.8152,-66.35 45.6628,-99.8211 z"
       id="path3087"
       inkscape:connector-curvature="0"
       sodipodi:nodetypes="csccccccc" />
    <path
       style="fill:url(#linearGradient4194);fill-opacity:1;stroke:none"
       d="m -2515.9345,-1394.8401 c 11.6562,-21.4558 0,-77.0957 -2.5399,-124.0044 -1.4009,-25.8126 5.1905,-38.5109 7.6543,-65.9848 1.706,-19.0247 -1.8153,-42.2773 3.7471,-62.0271 -28.7656,2.0362 -62.2648,-32.2063 -90.5838,-52.8111 -6.8944,-5.0163 -12.4123,-13.3173 -20.7809,-14.8921 -7.0542,-1.3275 -13.619,5.0775 -20.4285,8.2523 -22.9941,10.7206 -45.9881,25.6325 -68.9822,38.2148 l -60.3467,-43.2484 c -8.9157,-2.9266 -19.6956,0.4288 -28.7089,-0.1881 -15.4614,-1.0582 -28.8191,-3.4906 -41.0129,5.1651 -53.2976,37.833 -82.068,143.8552 -86.1204,190.9675 -45.2329,-7.0864 -87.3047,8.4817 -115.7045,122.0323 24.8597,7.9092 59.3782,-0.2036 73.0013,11.1572 8.6546,7.9655 15.55,36.3349 15.55,36.3349 l 15.6906,62.075 c 31.8337,42.5548 82.8507,63.0072 179.5599,30.814 119.8354,-23.4259 151.4297,-68.8426 202.5422,-78.8379 l 32.8793,-50.0422 c 12.9387,5.1154 14.6221,27.9175 18.0923,47.912 -28.0839,15.22 -79.5352,55.755 -123.1391,87.7883 -28.6821,-4.7657 -63.2652,4.0809 -105.0711,27.9665 -48.7451,27.8503 -104.2555,71.9467 -124.7027,74.1553 -83.7642,14.5591 -181.0129,-111.7293 -232.7776,-234.2793 0,0 21.778,-49.8605 34.0637,-109.2125 9.5491,-46.1317 -6.8686,-71.6046 11.7787,-100.2495 11.9284,-18.3237 69.2595,-54.1104 100.6252,-77.0138 37.5218,-27.3985 70.4133,-54.0666 88.8475,-71.0105 10.2596,-9.4301 13.8078,-17.256 15.6505,-17.7036 16.43,-3.9908 59.6036,11.5706 88.8445,6.4147 35.5068,-6.2607 54.6957,-45.1256 90.7482,-44.7481 29.6427,0.3103 39.8199,41.3287 70.8314,64.0788 34.9478,25.638 81.3588,38.5793 110.1199,58.0224 7.9802,5.3949 20.0468,9.898 19.2423,18.0963 l -2.7181,27.6986 c -19.9892,92.7034 -19.5703,195.611 -28.8194,293.6845 z"
       id="path3089"
       inkscape:connector-curvature="0"
       sodipodi:nodetypes="csscsssccssccccccccccsccssssssssssccc" />
    <path
       style="fill:url(#linearGradient4212);fill-opacity:1;stroke:none"
       d="m -2710.3397,-1650.1901 c 20.912,-15.3654 43.561,-29.3341 61.4026,-40.1346 11.2167,-6.79 18.2855,-13.2911 28.861,-15.0856 29.557,26.0594 66.8929,56.4467 97.6973,76.4587 -6.1283,73.0811 -5.4776,150.6815 -3.1858,229.376 -107.7495,132.4442 -347.8638,196.5995 -391.8507,121.0596 -11.404,-34.1778 -30.5042,-70.2797 -31.8579,-101.9449 -19.2991,-22.3271 -44.8537,-17.5469 -67.9632,-23.3624 5.9392,-98.3036 61.7129,-102.8809 96.6353,-103.0068 0,0 39.8395,-170.03 108.3164,-194.3325 39.2589,-13.9329 101.945,50.9725 101.945,50.9725 z"
       id="path3091"
       inkscape:connector-curvature="0"
       sodipodi:nodetypes="cscccccccsc" />
  </g>
  <g
     inkscape:groupmode="layer"
     id="layer5"
     inkscape:label="Sheets Lines"
     transform="translate(3657.0703,2044.2077)">
    <path
       style="fill:#222b00;stroke:none"
       d="m -2086.9891,-1791.4263 c 59.5258,-49.097 134.9029,-88.6832 155.0412,-161.4128 -6.0336,48.075 -53.6758,103.7924 -129.024,164.5986 z"
       id="path3094"
       inkscape:connector-curvature="0"
       sodipodi:nodetypes="cccc" />
    <path
       style="fill:#222b00;stroke:none"
       d="m -2168.2265,-1802.5765 c -2.4914,-42.3682 -28.1446,-49.9937 -46.1938,-69.0252 17.6993,20.9728 42.3045,38.4926 38.7604,70.0871 z"
       id="path3096"
       inkscape:connector-curvature="0"
       sodipodi:nodetypes="cccc" />
    <path
       sodipodi:nodetypes="cccc"
       inkscape:connector-curvature="0"
       id="path3098"
       d="m -2075.8389,-1798.3289 c -2.4914,-42.3681 -15.9325,-127.5141 -39.2912,-141.7671 20.885,19.3799 30.6233,118.6681 27.0791,150.2626 z"
       style="fill:#222b00;stroke:none" />
    <path
       style="fill:#222b00;stroke:none"
       d="m -2011.0614,-1974.6086 c 26.184,29.5996 11.6966,68.4425 9.0264,104.5998 0.7778,-36.1288 6.2066,-73.8079 -9.0264,-104.5998 z"
       id="path3100"
       inkscape:connector-curvature="0"
       sodipodi:nodetypes="ccc" />
    <path
       style="fill:#222b00;stroke:none"
       d="m -1978.1417,-1818.5054 c 28.4507,23.4641 57.6383,46.6371 48.8486,83.8921 13.4022,-49.0308 -19.869,-64.9387 -48.8486,-83.8921 z"
       id="path3102"
       inkscape:connector-curvature="0"
       sodipodi:nodetypes="ccc" />
    <path
       style="fill:#222b00;stroke:none"
       d="m -1997.2564,-1765.94 c 20.0111,30.4389 26.5172,64.2542 23.8934,100.3519 4.8842,-37.7335 4.8016,-73.8115 -23.8934,-100.3519 z"
       id="path3104"
       inkscape:connector-curvature="0"
       sodipodi:nodetypes="ccc" />
    <path
       style="fill:#222b00;stroke:none"
       d="m -1999.9112,-929.14226 c 58.1215,-77.10874 143.702,-131.33484 269.7293,-151.85544 -93.7962,12.7261 -187.0402,30.8354 -269.7293,151.85544 z"
       id="path3106"
       inkscape:connector-curvature="0"
       sodipodi:nodetypes="ccc" />
    <path
       sodipodi:nodetypes="ccc"
       inkscape:connector-curvature="0"
       id="path3108"
       d="m -1940.6924,-1013.837 c 11.284,-38.5349 38.9141,-76.1456 59.6298,-103.7463 -23.6571,22.4418 -49.34,47.2114 -59.6298,103.7463 z"
       style="fill:#222b00;stroke:none" />
    <path
       style="fill:#222b00;stroke:none"
       d="m -1991.438,-1047.882 c 1.5722,-15.5805 9.4774,-31.9749 15.4472,-44.0373 -7.4661,10.2947 -15.5426,21.6268 -15.4472,44.0373 z"
       id="path3110"
       inkscape:connector-curvature="0"
       sodipodi:nodetypes="ccc" />
    <path
       style="fill:#222b00;stroke:none"
       d="m -1866.1664,-1014.7937 c 30.6292,12.3919 69.0075,13.7632 97.3957,14.486 -26.5606,3.80916 -55.6579,7.73746 -97.3957,-14.486 z"
       id="path3112"
       inkscape:connector-curvature="0"
       sodipodi:nodetypes="ccc" />
    <path
       sodipodi:nodetypes="ccc"
       inkscape:connector-curvature="0"
       id="path3114"
       d="m -1923.1812,-961.18841 c 25.4322,21.09298 61.5893,34.03267 88.4229,43.32629 -26.4657,-4.42086 -55.3849,-9.49714 -88.4229,-43.32629 z"
       style="fill:#222b00;stroke:none" />
    <path
       style="fill:#222b00;stroke:none"
       d="m -1993.0144,-895.48507 c 25.4322,21.09297 61.5893,34.03267 88.4228,43.32626 -26.4657,-4.42083 -55.3847,-9.49714 -88.4228,-43.32626 z"
       id="path3116"
       inkscape:connector-curvature="0"
       sodipodi:nodetypes="ccc" />
    <path
       style="fill:#222b00;stroke:none"
       d="m -2162.3859,-667.90844 c 200.9444,149.11411 223.2115,228.12409 229.3761,279.28653 -4.7732,-49.81696 -62.7414,-151.88691 -250.6146,-279.28653 z"
       id="path3118"
       inkscape:connector-curvature="0"
       sodipodi:nodetypes="cccc" />
    <path
       style="fill:#222b00;stroke:none"
       d="m -2107.6966,-673.2181 c 49.5972,-38.93929 98.3634,-27.19341 146.5457,20.17662 -42.0909,-33.75613 -87.6063,-53.81448 -146.5457,-20.17662 z"
       id="path3120"
       inkscape:connector-curvature="0"
       sodipodi:nodetypes="ccc" />
    <path
       style="fill:#222b00;stroke:none"
       d="m -2015.3091,-584.0163 c 38.6424,15.83347 74.0907,35.3525 94.5114,72.21099 -15.0085,-42.13659 -49.8482,-62.55329 -94.5114,-72.21099 z"
       id="path3122"
       inkscape:connector-curvature="0"
       sodipodi:nodetypes="ccc" />
    <path
       style="fill:#222b00;stroke:none"
       d="m -2020.0877,-486.31909 c -3.4436,38.40632 -3.5183,76.81266 8.4954,115.21898 -6.9331,-38.40632 -8.6007,-76.81266 -8.4954,-115.21898 z"
       id="path3124"
       inkscape:connector-curvature="0"
       sodipodi:nodetypes="ccc" />
    <path
       style="fill:#222b00;stroke:none"
       d="m -2107.1658,-577.11377 c -54.331,65.13126 -54.4465,127.74088 -48.8485,190.0848 -16.513,-104.56652 10.6039,-154.31619 48.8485,-190.0848 z"
       id="path3126"
       inkscape:connector-curvature="0"
       sodipodi:nodetypes="ccc" />
    <path
       style="fill:#222b00;stroke:none"
       d="m -2195.3056,-625.43139 c -53.9281,16.57708 -76.3672,41.82149 -74.3349,108.84739 1.7259,-44.3508 16.3659,-84.18171 74.3349,-108.84739 z"
       id="path3128"
       inkscape:connector-curvature="0"
       sodipodi:nodetypes="ccc" />
    <path
       style="fill:#222b00;stroke:none"
       d="m -2624.0635,-532.06156 c -8.7618,125.81262 113.1402,241.10786 136.663,281.58569 -52.0858,-46.63238 -171.4732,-202.84768 -136.663,-281.58569 z"
       id="path3130"
       inkscape:connector-curvature="0"
       sodipodi:nodetypes="ccc" />
    <path
       style="fill:#222b00;stroke:none"
       d="m -2603.0384,-541.07232 c 51.2967,-8.76126 101.2759,-13.04293 132.9084,45.05374 -42.9696,-52.34696 -87.9961,-47.10074 -132.9084,-45.05374 z"
       id="path3132"
       inkscape:connector-curvature="0"
       sodipodi:nodetypes="ccc" />
    <path
       style="fill:#222b00;stroke:none"
       d="m -2579.0097,-444.20683 c 73.043,22.54157 87.9283,64.46899 115.6378,102.12175 -27.8533,-38.44347 -25.4177,-89.35878 -115.6378,-102.12175 z"
       id="path3134"
       inkscape:connector-curvature="0"
       sodipodi:nodetypes="ccc" />
    <path
       style="fill:#222b00;stroke:none"
       d="m -2606.042,-364.61193 c -0.3755,19.27297 2.4095,38.54595 12.0144,57.81893 -16.9903,-17.97442 -14.5844,-37.88848 -12.0144,-57.81893 z"
       id="path3136"
       inkscape:connector-curvature="0"
       sodipodi:nodetypes="ccc" />
    <path
       style="fill:#222b00;stroke:none"
       d="m -2644.3376,-499.02218 c -35.0326,21.66847 -41.9804,62.48561 -33.0394,114.13607 -2.6869,-60.17614 9.7105,-95.98536 33.0394,-114.13607 z"
       id="path3138"
       inkscape:connector-curvature="0"
       sodipodi:nodetypes="ccc" />
    <path
       style="fill:#222b00;stroke:none"
       d="m -3340.0619,-493.75257 c -10.4002,70.86531 -56.707,144.72281 -168.8463,224.0664 56.6303,-29.72019 159.4683,-99.80766 181.5894,-220.88062 z"
       id="path3140"
       inkscape:connector-curvature="0"
       sodipodi:nodetypes="cccc" />
    <path
       style="fill:#222b00;stroke:none"
       d="m -3328.3808,-465.08057 c 16.731,39.36394 61.1325,91.12107 13.8051,163.53664 74.3528,-73.52353 -7.712,-140.99333 -13.8051,-185.8371 z"
       id="path3142"
       inkscape:connector-curvature="0"
       sodipodi:nodetypes="cccc" />
    <path
       style="fill:#222b00;stroke:none"
       d="m -3228.5597,-494.81448 c 43.9877,9.50993 30.0692,47.97302 31.8578,78.58254 -0.1926,-34.72524 -1.1855,-68.79536 -31.8578,-78.58254 z"
       id="path3144"
       inkscape:connector-curvature="0"
       sodipodi:nodetypes="ccc" />
    <path
       style="fill:#222b00;stroke:none"
       d="m -3397.4059,-436.40856 c -38.878,22.12823 -77.3701,48.1513 -121.0596,75.39675 51.4037,-22.3526 86.189,-50.49049 121.0596,-75.39675 z"
       id="path3146"
       inkscape:connector-curvature="0"
       sodipodi:nodetypes="ccc" />
    <path
       style="fill:#222b00;stroke:none"
       d="m -3368.7339,-502.24799 c -37.5612,0.11528 -73.5867,9.44493 -108.3165,26.54813 31.9422,-21.63667 66.5139,-35.19679 108.3165,-26.54813 z"
       id="path3148"
       inkscape:connector-curvature="0"
       sodipodi:nodetypes="ccc" />
  </g>
  <g
     inkscape:groupmode="layer"
     id="layer6"
     inkscape:label="Rose Center"
     transform="translate(3824.1238,2365.2143)">
    <path
       style="fill:#000000;fill-opacity:1;fill-rule:nonzero;stroke:none"
       d="m -3024.2703,-1563.6554 c -11.8531,8.5731 -131.5411,-2.4342 -162.1933,-109.6307 10.6201,78.5863 86.7434,151.6947 198.9872,114.136 z"
       id="path3157"
       inkscape:connector-curvature="0"
       sodipodi:nodetypes="cccc" />
    <path
       style="fill:#000000;fill-opacity:1;fill-rule:nonzero;stroke:none"
       d="m -3085.8437,-1601.2002 c 72.0771,-35.9095 137.7421,-6.0859 146.4245,27.0322 l 21.0251,-0.7509 c -11.6629,-26.4486 -47.9139,-39.4609 -85.602,-51.8117 12.5892,-6.7606 39.0062,-9.7499 73.5876,-10.5126 -36.7625,-1.0779 -55.0996,-19.4331 -159.9406,31.5376 z"
       id="path3159"
       inkscape:connector-curvature="0"
       sodipodi:nodetypes="ccccccc" />
    <path
       style="fill:#000000;fill-opacity:1;fill-rule:nonzero;stroke:none"
       d="m -2973.9603,-1669.5316 c -43.7361,-5.8382 -122.7385,-16.3491 -117.5151,-161.8179 l 10.888,-27.4077 c -11.7195,95.6173 15.5882,176.2681 106.6271,189.2256 z"
       id="path3161"
       inkscape:connector-curvature="0"
       sodipodi:nodetypes="cccc" />
    <path
       style="fill:#000000;fill-opacity:1;fill-rule:nonzero;stroke:none"
       d="m -3048.2989,-1772.0289 c 5.8746,46.6981 71.2005,101.0787 112.2588,132.1576 -45.9199,-27.7231 -120.8879,-85.7759 -112.2588,-132.1576 z"
       id="path3163"
       inkscape:connector-curvature="0"
       sodipodi:nodetypes="ccc" />
    <path
       style="fill:#000000;fill-opacity:1;fill-rule:nonzero;stroke:none"
       d="m -2811.5559,-1901.131 c 0,0 63.0633,-5.5676 81.7683,14.867 24.8409,27.1378 1.1329,74.2254 10.0883,109.9093 3.6487,14.5389 17.5547,26.8788 12.2121,40.8842 -15.7845,41.3789 -79.3371,79.4718 -135.5981,95.1581 -39.9894,11.1496 -79.9728,5.7249 -79.9728,5.7249 0,0 37.7282,11.2686 77.1511,1.6686 58.581,-14.2653 128.6013,-56.0083 146.3843,-98.8349 6.0376,-14.5402 -9.0382,-26.0142 -12.2122,-44.0699 -6.55,-37.2614 16.515,-85.6808 -9.5573,-113.0952 -20.9239,-22.0009 -90.2637,-12.2121 -90.2637,-12.2121 z"
       id="path3165"
       inkscape:connector-curvature="0"
       sodipodi:nodetypes="csssscssssc" />
    <path
       style="fill:#000000;fill-opacity:1;fill-rule:nonzero;stroke:none"
       d="m -2762.2079,-1819.7107 c 6.5835,-1.8811 21.326,32.9841 6.7581,57.068 -5.3303,8.8121 17.3273,18.2155 13.5161,27.7831 -9.9956,25.0927 -51.262,17.3337 -75.8404,28.5341 -22.5222,10.2633 -65.3279,35.292 -65.3279,35.292 -7.6197,4.1164 -17.3857,-6.3936 -20.5542,-7.9409 -55.4725,-27.0894 -105.2738,-62.4289 -132.1488,-96.1343 -30.6175,-38.3989 -0.5476,-163.6844 76.8626,-128.7023 -60.9598,-74.9525 -213.0174,132.9241 55.4283,233.147 6.5511,2.4458 15.8114,8.1655 22.4771,4.8868 27.4702,-13.5118 50.0342,-30.0733 67.956,-36.7939 0,0 65.8305,-5.3964 77.1545,-30.7867 5.036,-11.2917 -16.8268,-18.9943 -11.2635,-30.0358 13.3215,-26.439 -0.4993,-62.2954 -15.0179,-56.3171 z"
       id="path3167"
       inkscape:connector-curvature="0"
       sodipodi:nodetypes="csssssscsssssc" />
    <path
       style="fill:#000000;fill-opacity:1;fill-rule:nonzero;stroke:none"
       d="m -2995.8001,-1793.3455 c 29.2173,-62.9358 90.8284,-52.0427 122.6525,-48.8486 18.6726,55.5808 -36.59,97.4867 -71.1491,101.414 19.2917,3.8937 106.9636,-11.4492 72.211,-118.9358 -56.7136,7.4029 -122.6237,6.058 -123.7144,66.3704 z"
       id="path3169"
       inkscape:connector-curvature="0"
       sodipodi:nodetypes="ccccc" />
    <path
       sodipodi:nodetypes="ccccc"
       inkscape:connector-curvature="0"
       id="path3171"
       d="m -2971.3686,-1783.0934 c 21.9879,-29.6924 52.9545,-17.4039 69.2105,-12.3253 3.7789,30.9918 -29.5385,46.9227 -47.9847,45.2651 9.6445,4.0995 57.0171,5.4988 50.4176,-54.2901 -30.3742,-2.2207 -64.6068,-9.9901 -71.6434,21.3503 z"
       style="fill:#000000;fill-opacity:1;fill-rule:nonzero;stroke:none" />
    <path
       style="fill:#000000;fill-opacity:1;fill-rule:nonzero;stroke:none"
       d="m -2994.2072,-1830.5129 c 21.1762,-30.0299 28.1467,-61.4164 57.875,-89.2018 7.8699,-7.3556 39.6321,4.6125 74.3364,7.4135 5.0908,0.4108 11.1582,-2.3781 15.3963,0.551 11.0996,7.6711 11.1352,18.3185 14.9059,29.079 14.7581,42.1154 -6.7501,89.9088 -28.1799,107.9094 2.3914,0.2174 37.9175,-58.3836 22.7266,-90.3296 -5.0834,-10.6904 6.2981,-22.0564 -15.8241,-31.7919 -1.8622,-0.8195 -42.2884,-11.28 -70.0871,-18.5837 -33.3419,23.9172 -48.8796,54.1168 -71.1491,84.9541 z"
       id="path3173"
       inkscape:connector-curvature="0"
       sodipodi:nodetypes="csssscsscc" />
    <path
       style="fill:#000000;fill-opacity:1;fill-rule:nonzero;stroke:none"
       d="m -2916.6866,-2007.0581 c 100.672,63.3507 114.9638,131.5905 119.4666,176.0142 -7.9554,-55.592 -74.5283,-136.9703 -119.4666,-176.0142 z"
       id="path3175"
       inkscape:connector-curvature="0"
       sodipodi:nodetypes="ccc" />
    <path
       style="fill:#000000;fill-opacity:1;fill-rule:nonzero;stroke:none"
       d="m -2821.5286,-1842.9884 c 83.7154,110.2384 -9.7385,101.669 -90.8583,101.3708 60.3,-10.0951 139.7776,-5.05 90.8583,-101.3708 z"
       id="path3177"
       inkscape:connector-curvature="0"
       sodipodi:nodetypes="ccc" />
    <path
       style="fill:#000000;fill-opacity:1;fill-rule:nonzero;stroke:none"
       d="m -2976.213,-1718.3399 c 71.3192,-26.9324 -14.7286,-26.2505 -49.5591,-39.7974 36.8145,17.5036 85.1991,16.0558 49.5591,39.7974 z"
       id="path3179"
       inkscape:connector-curvature="0"
       sodipodi:nodetypes="ccc" />
    <path
       style="fill:#000000;fill-opacity:1;fill-rule:nonzero;stroke:none"
       d="m -2944.6754,-1713.0836 c 17.5209,-3.9407 35.0418,-11.7932 52.5627,-4.5053 -11.5791,-5.7606 -23.3731,-11.2583 -52.5627,4.5053 z"
       id="path3181"
       inkscape:connector-curvature="0"
       sodipodi:nodetypes="ccc" />
  </g>
  <g
     inkscape:groupmode="layer"
     id="layer7"
     inkscape:label="Shad test"
     style="filter:url(#filter3186)"
     transform="translate(3824.1238,2365.2143)" />
</svg>
